<?xml version="1.0" standalone="no"?>
<!DOCTYPE svg PUBLIC "-//W3C//DTD SVG 20010904//EN"
 "http://www.w3.org/TR/2001/REC-SVG-20010904/DTD/svg10.dtd">
<svg version="1.0" xmlns="http://www.w3.org/2000/svg"
 width="16.000000pt" height="16.000000pt" viewBox="0 0 16.000000 16.000000"
 preserveAspectRatio="xMidYMid meet">
<metadata>
Created by potrace 1.11, written by Peter Selinger 2001-2013
</metadata>
<g transform="translate(0.000000,16.000000) scale(0.003125,-0.003125)"
fill="#000000" stroke="none">
<path d="M2315 5109 c-720 -74 -1370 -439 -1799 -1009 -505 -670 -649 -1543
-386 -2340 127 -387 332 -720 621 -1009 405 -405 902 -649 1494 -733 118 -17
512 -17 630 0 592 84 1088 328 1494 733 405 406 649 902 733 1494 17 118 17
512 0 630 -84 592 -328 1088 -733 1494 -396 395 -881 639 -1449 726 -126 19
-477 28 -605 14z m-110 -574 c85 -22 127 -65 133 -137 3 -44 -3 -71 -37 -161
-71 -187 -89 -360 -126 -1235 -8 -194 -15 -380 -15 -414 l0 -60 59 83 c33 45
92 122 131 170 83 101 121 122 247 140 209 30 399 -32 556 -181 158 -149 218
-275 225 -472 3 -86 0 -138 -13 -193 -46 -207 -195 -382 -447 -524 -67 -37
-68 -40 -39 -153 47 -185 122 -258 264 -258 145 0 250 48 454 205 81 63 174
128 205 145 l58 31 44 -26 c55 -32 64 -63 42 -139 -41 -141 -237 -311 -508
-441 -174 -83 -242 -99 -413 -92 -84 3 -164 12 -200 22 -198 55 -360 196 -483
422 -25 45 -43 68 -55 67 -9 0 -48 -1 -87 -2 l-70 -2 0 -256 c0 -301 -1 -303
-98 -351 -108 -53 -224 -32 -378 68 l-77 50 7 342 c8 399 21 807 41 1317 30
752 37 957 45 1400 9 501 10 513 72 577 38 39 76 53 172 63 121 13 229 11 291
-5z"/>
<path d="M2690 2519 c-131 -92 -272 -280 -382 -507 -75 -154 -77 -174 -20
-218 54 -42 111 -58 185 -51 159 14 276 143 339 373 31 115 32 343 3 394 -29
48 -66 51 -125 9z"/>
</g>
</svg>
